{"title":"We.Need.To.Talk.About.Kevin.2011.BDRip.XVID.AC3.HQ.Hive-CM8.","uid":7028006,"size":1824845428,"categoryP":"video","categoryS":"movies","magnet":"?xt=urn:btih:3e7a9c573b58f30cb4b6ae3ded73b95a0127d2b2&amp;dn=We.Need.To.Talk.About.Kevin.2011.BDRip.XVID.AC3.HQ.Hive-CM8.&amp;tr=udp%3A%2F%2Ftracker.openbittorrent.com%3A80&amp;tr=udp%3A%2F%2Fopen.demonii.com%3A1337&amp;tr=udp%3A%2F%2Ftracker.coppersurfer.tk%3A6969&amp;tr=udp%3A%2F%2Fexodus.desync.com%3A6969","seeders":0,"leechers":1,"uploader":"moviesp2p","files":3,"time":1329133820,"description":"[color=blue][size=4][b]We.Need.To.Talk.About.Kevin.2011.BDRip.XVID.AC3.HQ.Hive-CM8[/b][/size][/color]\n\n\n[b] Thx Hive\n\nCM8 Doing It Right The First Time :D\n\n\nSource: Bluray\n\nVideo: 720x304 @bitrate 1700 2pass\nAudio: English DTS to AC3 5.1 @384\nSample: Yes, included[/b]\n\n &lt;a href=&quot;\nhttp://www.imdb.com/title/tt1242460/&quot; rel=&quot;nofollow&quot; target=&quot;_NEW&quot;&gt;\nhttp://www.imdb.com/title/tt1242460/&lt;/a&gt;\n\n\nGeneral\nComplete name                  : We.Need.To.Talk.About.Kevin.2011.BDRip.XVID.AC3.HQ.Hive-CM8.avi\nFormat                         : AVI\nFormat/Info                    : Audio Video Interleave\nFile size                      : 1.67 GiB\nDuration                       : 1h 51mn\nOverall bit rate               : 2 131 Kbps\nWriting application            : Nandub v1.0rc2\nWriting library                : Nandub build 1853/release\n\nVideo\nID                             : 0\nFormat                         : MPEG-4 Visual\nFormat profile                 : Advanced Simple@L5\nFormat settings, BVOP          : 1\nFormat settings, QPel          : Yes\nFormat settings, GMC           : No warppoints\nFormat settings, Matrix        : Default (H.263)\nMuxing mode                    : Packed bitstream\nCodec ID                       : XVID\nCodec ID/Hint                  : XviD\nDuration                       : 1h 51mn\nBit rate                       : 1 737 Kbps\nWidth                          : 720 pixels\nHeight                         : 304 pixels\nDisplay aspect ratio           : 2.40:1\nFrame rate                     : 24.000 fps\nColor space                    : YUV\nChroma subsampling             : 4:2:0\nBit depth                      : 8 bits\nScan type                      : Progressive\nCompression mode               : Lossy\nBits/(Pixel*Frame)             : 0.331\nStream size                    : 1.36 GiB (82%)\nWriting library                : XviD 1.2.1 (UTC 2008-12-04)\n\nAudio\nID                             : 1\nFormat                         : AC-3\nFormat/Info                    : Audio Coding 3\nMode extension                 : CM (complete main)\nCodec ID                       : 2000\nDuration                       : 1h 51mn\nBit rate mode                  : Constant\nBit rate                       : 384 Kbps\nChannel(s)                     : 6 channels\nChannel positions              : Front: L C R, Side: L R, LFE\nSampling rate                  : 48.0 KHz\nBit depth                      : 16 bits\nCompression mode               : Lossy\nStream size                    : 308 MiB (18%)\nAlignment                      : Split accross interleaves\nInterleave, duration           : 42 ms (1.00 video frame)\nInterleave, preload duration   : 500 ms\n\n\nPlot:\nThe mother of a teenage boy who went on a high-school killing spree tries to\ndeal with her grief and feelings of responsibility for her child's actions.\n\n\nCast:\nTilda Swinton    ...    Eva Khatchadourian\nJohn C. Reilly   ...    Franklin\nEzra Miller      ...    Kevin, Teenager\nSiobhan Fallon   ...    Wanda\n","torrent":{"xt":"urn:btih:3e7a9c573b58f30cb4b6ae3ded73b95a0127d2b2","amp;dn":"We.Need.To.Talk.About.Kevin.2011.BDRip.XVID.AC3.HQ.Hive-CM8.","amp;tr":["udp%3A%2F%2Ftracker.openbittorrent.com%3A80","udp%3A%2F%2Fopen.demonii.com%3A1337","udp%3A%2F%2Ftracker.coppersurfer.tk%3A6969","udp%3A%2F%2Fexodus.desync.com%3A6969"],"infoHash":"3e7a9c573b58f30cb4b6ae3ded73b95a0127d2b2","infoHashBuffer":{"type":"Buffer","data":[62,122,156,87,59,88,243,12,180,182,174,61,237,115,185,90,1,39,210,178]},"announce":[],"urlList":[]}}